<?xml version="1.0" encoding="utf-8"?>
<!-- Generator: Adobe Illustrator 24.3.0, SVG Export Plug-In . SVG Version: 6.00 Build 0)  -->
<svg version="1.1" id="Layer_1" xmlns="http://www.w3.org/2000/svg" xmlns:xlink="http://www.w3.org/1999/xlink" x="0px" y="0px"
	 viewBox="0 0 512 512" style="enable-background:new 0 0 512 512;" xml:space="preserve">
<style type="text/css">
	.st0{fill:#28A745;}
</style>
<path class="st0" d="M477.5,128C463,103.1,285.1,0,256.2,0S49.2,102.8,34.8,128s-14.5,230.8,0,256s192.4,128,221.3,128
	S463,409.1,477.5,384S492,153,477.5,128z M316.1,414.2c-4,0-40.9-35.8-38-38.7c0.9-0.9,6.3-1.5,17.5-1.8c0-26.2,0.6-68.6,0.9-86.3
	c0-2-0.4-3.4-0.4-5.9h-79.9c0,7.1-0.5,36.2,1.4,72.9c0.2,4.5-1.6,6-5.7,5.9c-10.1,0-20.3-0.1-30.4-0.1c-4.1,0-5.9-1.5-5.7-6.1
	c0.9-33.4,3-84-0.1-212.7v-3.2c-9.7-0.4-16.4-1-17.3-1.8c-2.9-2.9,34.5-38.7,38.5-38.7s41.2,35.8,38.3,38.7
	c-0.9,0.9-7.9,1.5-16.8,1.8v3.2c-2.4,25.8-2,79.6-2.6,105.4h80.3c0-4.6,0.4-34.7-1.2-83.6c-0.1-3.4,1-5.2,4.2-5.2
	c11.1-0.1,22.1-0.1,33.2-0.1c3.5,0,4.6,1.7,4.5,5.4C333,354.6,336,341.3,336,373.7c8.9,0.4,16.8,1,17.7,1.8
	C356.6,378.4,320.1,414.2,316.1,414.2L316.1,414.2z"/>
</svg>
